inDegrees=no
num_controls=7
num_derivatives=13
num_iterations=163
num_multipliers=7
num_parameters=0
num_slacks=7
num_states=26
objective=0.497109
objective_accelerations=0.042098
objective_balance=0.003556
objective_effort=0.039620
objective_height=0.406005
objective_ligament=0.005830
solver_duration=1843.969575
status=Solve_Succeeded
success=true
DataType=double
version=3
OpenSimVersion=4.5
endheader
time	/jointset/ground_pelvis/pelvis_tilt/value	/jointset/ground_pelvis/pelvis_tx/value	/jointset/ground_pelvis/pelvis_ty/value	/jointset/hip_r/hip_flexion_r/value	/jointset/hip_r/hip_adduction_r/value	/jointset/hip_r/hip_rotation_r/value	/jointset/back/lumbar_extension/value	/jointset/patellofemoral_r/patellar_flexion_r/value	/jointset/knee_r/knee_flexion_r/value	/jointset/knee_r/knee_adduction_r/value	/jointset/knee_r/knee_rotation_r/value	/jointset/ankle_r/ankle_angle_r/value	/jointset/subtalar_r/subtalar_angle_r/value	/jointset/ground_pelvis/pelvis_tilt/speed	/jointset/ground_pelvis/pelvis_tx/speed	/jointset/ground_pelvis/pelvis_ty/speed	/jointset/hip_r/hip_flexion_r/speed	/jointset/hip_r/hip_adduction_r/speed	/jointset/hip_r/hip_rotation_r/speed	/jointset/back/lumbar_extension/speed	/jointset/patellofemoral_r/patellar_flexion_r/speed	/jointset/knee_r/knee_flexion_r/speed	/jointset/knee_r/knee_adduction_r/speed	/jointset/knee_r/knee_rotation_r/speed	/jointset/ankle_r/ankle_angle_r/speed	/jointset/subtalar_r/subtalar_angle_r/speed	/forceset/tau_hip_flexion_r	/forceset/tau_hip_adduction_r	/forceset/tau_hip_rotation_r	/forceset/tau_knee_flexion_r	/forceset/tau_ankle_angle_r	/forceset/tau_subtalar_angle_r	/forceset/tau_lumbar_extension	lambda_cid13_p0	lambda_cid14_p0	lambda_cid14_p1	lambda_cid14_p2	lambda_cid14_p3	lambda_cid14_p4	lambda_cid14_p5	/jointset/ground_pelvis/pelvis_tilt/accel	/jointset/ground_pelvis/pelvis_tx/accel	/jointset/ground_pelvis/pelvis_ty/accel	/jointset/hip_r/hip_flexion_r/accel	/jointset/hip_r/hip_adduction_r/accel	/jointset/hip_r/hip_rotation_r/accel	/jointset/back/lumbar_extension/accel	/jointset/patellofemoral_r/patellar_flexion_r/accel	/jointset/knee_r/knee_flexion_r/accel	/jointset/knee_r/knee_adduction_r/accel	/jointset/knee_r/knee_rotation_r/accel	/jointset/ankle_r/ankle_angle_r/accel	/jointset/subtalar_r/subtalar_angle_r/accel	gamma_cid13_p0	gamma_cid14_p0	gamma_cid14_p1	gamma_cid14_p2	gamma_cid14_p3	gamma_cid14_p4	gamma_cid14_p5
0	-0.006515408072978577	0.0962603081857924	0.9427240707892731	0.1762555222360518	-0.2321527231556276	-0.2616406629258642	-0.038598046466844	0.07317863873451028	0.07317863873451017	0.1745328164899624	0.1745329241587028	0.03247278518263602	-0.003452011935552574	0	0	0	0	0	0	0	0	0	0	0	0	0	0.2353506996964197	-0.1846345184735435	-0.04787599704045609	-0.431465087888811	0.4415175722961842	-0.1385943533586036	-0.127876018258569	-39.07630451814907	92.51065236724202	-34.28293063395883	-5.166295194628368	-45.68200174711713	-677.7501781358042	69.44936946138573	-1.901327045141963	-0.8709924611776896	-0.6083364036128421	8.683898162872786	-0.02693553718318097	2.623052917070451	-4.886748449233043	9.550847831124969	9.550847831125264	-2.517868124959433	0.163020925636831	3.533246922884401	0.7615561218894202	8.95550566383127e-08	2.444210574788947e-08	-6.793072229280139e-07	1.935562048849827e-07	5.166099604232241e-08	-2.325780344628676e-08	-3.448260195785115e-07
0.01	-0.006603498271681385	0.09621673333661852	0.9426948135022932	0.1766755724653942	-0.2321529672743348	-0.2615020691072046	-0.03884515081201704	0.07364270257568639	0.073642702575688	0.1744074219230625	0.1745297815841465	0.0326443874231243	-0.003414033170912508	-0.01750043667808365	-0.008748151912107328	-0.005839986213003535	0.08367783216425229	-9.176053289377222e-05	0.02756038431230915	-0.04911344618598956	0.09241797112997086	0.0924179711299709	-0.02486736820547351	-0.0005926209106523935	0.03407040526127618	0.007493977021658409	0.2267797627449272	-0.1901986681265153	-0.04541424556810746	-0.4174354016782481	0.4182432107704617	-0.1255336546040156	-0.1214454141093629	-39.09179819346057	85.49407247021881	-29.88678827415975	-5.812828180671836	-40.74123648600062	-677.9587598448472	77.12472550048264	-1.656758303525062	-0.881693535533968	-0.5701137042625775	8.159895782376649	-0.006804466148866867	2.798823292429958	-4.877529276060114	9.028034277099691	9.028034277099515	-2.439524935885197	-0.1649609380719938	3.306443683129241	0.7279679782237445	1.213930033160442e-07	2.17932656940982e-08	-9.20497498005915e-07	1.831437752112081e-07	8.15287135353166e-08	-1.819869850030245e-07	-4.030442907104745e-07
0.02	-0.00686306410203997	0.09608468357246232	0.9426074995583597	0.1779224350242151	-0.2321554306293322	-0.2610926130245979	-0.03957416693360523	0.07501909863279797	0.0750190986327984	0.1740396829205927	0.1745218013327449	0.03314919498730152	-0.00330418473887191	-0.03429512633151428	-0.01769498299646614	-0.01161133139073427	0.1653624658955127	-0.0004438472580427685	0.05417245278936975	-0.09638235528311227	0.1824664431866039	0.1824664431866025	-0.04846888711270237	-0.000967535367531954	0.06664106473775334	0.01437393348010463	0.2182088257934324	-0.1957628177794887	-0.04295249409577956	-0.4034057154676824	0.3949688492447385	-0.112472955849429	-0.1150148099601583	-39.13771508049524	78.56067038078626	-25.49523233706474	-6.436755003482004	-36.00075739588316	-676.9137943384752	84.57955001981021	-1.760177640211396	-0.9107282956279524	-0.5946081965582841	8.2852584762744	-0.07900077563422893	2.433389750020694	-4.517841031459698	9.076948016457415	9.076948016457418	-2.264698265310494	0.2065622163914453	3.233297765924632	0.6387520092469888	1.532309499937756e-07	1.914442564030693e-08	-1.161687773083816e-06	1.727313455374335e-07	1.113964310283108e-07	-3.407161665597622e-07	-4.612625618424376e-07
0.03	-0.007287788224014644	0.0958629487545393	0.9424625753133908	0.1799762962489695	-0.2321627706806892	-0.2604229733481037	-0.04076606989315991	0.0772847915994663	0.07728479159946797	0.1734425738093549	0.1745122880185921	0.03397330576567632	-0.003128382417058463	-0.05056315547085895	-0.02660575044293949	-0.01737784355973055	0.2450180180885148	-0.001060381872706938	0.07962738297052201	-0.1416766282612581	0.2702732814966456	0.2702732814966424	-0.07073164047588949	-0.0009499994511757006	0.09802757554246322	0.02071483925051821	0.2122437731989297	-0.1923609576792284	-0.0414111986977567	-0.3964946375869716	0.3850521900049614	-0.1107891362290395	-0.1102576477545767	-39.21290427961517	75.48747405509886	-25.34143502394149	-6.416280929849258	-34.24452230646068	-676.3562330375755	83.87621262499511	-1.547122987858846	-0.8742940473265701	-0.5683904051408715	7.746943319265204	-0.05855066175255824	2.582387069193457	-4.486979176072809	8.572690665855021	8.572690665854743	-2.174036062979867	-0.102807152788485	3.068327174986616	0.6208428620736205	1.677156248034028e-07	1.214150327959279e-08	-1.273298084795539e-06	1.65274915003884e-07	1.319114490061234e-07	-4.657380526009314e-07	-4.934129159474322e-07
